<svg viewBox="0 0 147 119" fill="none" xmlns="http://www.w3.org/2000/svg">
<path d="M77.208 91.48C76.344 91.48 75.68 91.232 75.216 90.736C74.752 90.24 74.432 89.608 74.256 88.84C74.08 88.056 73.992 87.256 73.992 86.44C73.992 85.768 74.024 85.12 74.088 84.496C74.168 83.872 74.24 83.36 74.304 82.96C74.368 82.56 74.44 82.16 74.52 81.76C74.6 81.344 74.664 80.936 74.712 80.536C74.744 80.296 74.768 80.056 74.784 79.816C74.8 79.576 74.808 79.344 74.808 79.12C74.808 78.768 74.784 78.424 74.736 78.088C74.56 76.84 74.056 75.904 73.224 75.28C72.392 74.656 71.36 74.344 70.128 74.344C69.776 74.344 69.416 74.384 69.048 74.464C68.68 74.544 68.328 74.648 67.992 74.776C66.824 75.272 65.976 76.016 65.448 77.008C64.92 78 64.656 79.128 64.656 80.392C64.656 81.144 64.776 81.84 65.016 82.48C65.256 83.12 65.632 83.64 66.144 84.04C66.672 84.424 67.344 84.624 68.16 84.64C68.48 84.64 68.816 84.608 69.168 84.544C69.536 84.464 69.856 84.352 70.128 84.208C70.416 84.064 70.656 83.904 70.848 83.728C71.056 83.536 71.232 83.296 71.376 83.008C71.568 82.64 71.664 82.256 71.664 81.856C71.664 81.472 71.568 81.12 71.376 80.8C71.2 80.464 70.912 80.24 70.512 80.128C70.336 80.08 70.216 80.056 70.152 80.056C70.088 80.04 70.032 80.04 69.984 80.056C69.856 80.104 69.736 80.136 69.624 80.152C69.512 80.152 69.392 80.152 69.264 80.152C69.024 80.136 68.848 80.08 68.736 79.984C68.64 79.888 68.592 79.784 68.592 79.672C68.592 79.368 68.744 79.16 69.048 79.048C69.16 79.016 69.312 78.992 69.504 78.976C69.696 78.944 69.872 78.928 70.032 78.928C70.976 78.928 71.672 79.2 72.12 79.744C72.584 80.288 72.816 80.92 72.816 81.64C72.816 82.328 72.624 83.016 72.24 83.704C71.856 84.376 71.304 84.896 70.584 85.264C70.248 85.424 69.872 85.552 69.456 85.648C69.056 85.728 68.664 85.768 68.28 85.768C67.176 85.768 66.272 85.52 65.568 85.024C64.864 84.512 64.336 83.848 63.984 83.032C63.648 82.216 63.48 81.328 63.48 80.368C63.48 78.864 63.816 77.536 64.488 76.384C65.16 75.216 66.2 74.336 67.608 73.744C68.008 73.568 68.424 73.432 68.856 73.336C69.304 73.24 69.744 73.192 70.176 73.192C71.088 73.192 71.936 73.368 72.72 73.72C73.52 74.056 74.192 74.552 74.736 75.208C75.296 75.848 75.664 76.632 75.84 77.56C75.936 78.056 75.984 78.56 75.984 79.072C75.984 79.328 75.968 79.592 75.936 79.864C75.92 80.12 75.896 80.384 75.864 80.656C75.832 80.928 75.76 81.384 75.648 82.024C75.552 82.648 75.456 83.352 75.36 84.136C75.28 84.92 75.24 85.704 75.24 86.488C75.24 87.176 75.288 87.816 75.384 88.408C75.496 88.984 75.68 89.456 75.936 89.824C76.208 90.176 76.576 90.352 77.04 90.352H77.064C77.784 90.352 78.416 90.176 78.96 89.824C79.504 89.472 79.976 89.016 80.376 88.456C80.776 87.896 81.112 87.288 81.384 86.632C81.672 85.976 81.912 85.344 82.104 84.736C82.072 84.384 82.048 84.04 82.032 83.704C82.016 83.368 82.008 83.032 82.008 82.696C82.008 81.816 82.048 80.992 82.128 80.224C82.224 79.456 82.344 78.824 82.488 78.328C82.52 78.2 82.568 78.016 82.632 77.776C82.712 77.536 82.816 77.32 82.944 77.128C83.072 76.92 83.216 76.816 83.376 76.816C83.488 76.816 83.568 76.88 83.616 77.008C83.68 77.136 83.72 77.24 83.736 77.32C83.8 77.576 83.84 77.888 83.856 78.256C83.888 78.608 83.904 78.976 83.904 79.36C83.904 80.304 83.864 81.12 83.784 81.808C83.736 82.256 83.664 82.728 83.568 83.224C83.488 83.72 83.384 84.224 83.256 84.736C83.288 84.992 83.344 85.344 83.424 85.792C83.52 86.24 83.64 86.72 83.784 87.232C83.944 87.744 84.144 88.224 84.384 88.672C84.64 89.12 84.936 89.488 85.272 89.776C85.624 90.064 86.04 90.208 86.52 90.208C87.288 90.208 87.936 89.992 88.464 89.56C89.008 89.112 89.44 88.544 89.76 87.856C90.096 87.152 90.352 86.4 90.528 85.6C90.72 84.8 90.848 84.032 90.912 83.296C90.976 82.544 91.008 81.92 91.008 81.424C91.008 80.72 90.952 80.008 90.84 79.288C90.728 78.552 90.56 77.848 90.336 77.176C90.304 77.08 90.24 76.92 90.144 76.696C90.064 76.456 89.96 76.208 89.832 75.952C89.704 75.696 89.56 75.48 89.4 75.304C89.24 75.112 89.072 75.016 88.896 75.016C88.8 75.016 88.696 75.056 88.584 75.136C88.376 75.152 88.192 75.104 88.032 74.992C87.872 74.864 87.792 74.72 87.792 74.56C87.792 74.336 87.944 74.16 88.248 74.032C88.344 73.984 88.48 73.96 88.656 73.96C88.832 73.96 89.008 73.984 89.184 74.032C89.376 74.064 89.52 74.104 89.616 74.152C90.144 74.392 90.576 74.792 90.912 75.352C91.248 75.912 91.504 76.552 91.68 77.272C91.872 77.976 92 78.696 92.064 79.432C92.144 80.152 92.184 80.8 92.184 81.376C92.184 81.52 92.176 81.656 92.16 81.784C92.16 81.912 92.16 82.04 92.16 82.168C92.128 82.824 92.056 83.56 91.944 84.376C91.832 85.192 91.648 86.008 91.392 86.824C91.152 87.64 90.824 88.392 90.408 89.08C89.992 89.768 89.464 90.32 88.824 90.736C88.184 91.152 87.408 91.36 86.496 91.36C85.76 91.36 85.128 91.168 84.6 90.784C84.088 90.4 83.656 89.896 83.304 89.272C82.968 88.632 82.696 87.92 82.488 87.136C82.168 87.92 81.768 88.64 81.288 89.296C80.808 89.952 80.232 90.48 79.56 90.88C78.888 91.28 78.104 91.48 77.208 91.48ZM97.1258 91.192C96.4058 91.192 95.8058 91.04 95.3258 90.736C94.8458 90.416 94.4538 90.008 94.1498 89.512C93.8618 89 93.6538 88.448 93.5258 87.856C93.3978 87.248 93.3338 86.656 93.3338 86.08C93.3338 84.944 93.6138 83.832 94.1738 82.744C94.7338 81.656 95.4858 80.792 96.4298 80.152C97.2458 79.608 98.1578 79.336 99.1658 79.336C99.7578 79.336 100.31 79.448 100.822 79.672C101.35 79.896 101.774 80.248 102.094 80.728C102.43 81.192 102.598 81.8 102.598 82.552C102.598 82.856 102.558 83.384 102.478 84.136C102.398 84.872 102.358 85.64 102.358 86.44C102.358 87.048 102.398 87.624 102.478 88.168C102.574 88.696 102.734 89.128 102.958 89.464C103.198 89.8 103.534 89.968 103.966 89.968C104.174 89.968 104.326 90.032 104.422 90.16C104.518 90.288 104.566 90.432 104.566 90.592C104.566 90.736 104.518 90.872 104.422 91C104.326 91.128 104.174 91.192 103.966 91.192C103.342 91.192 102.83 91.048 102.43 90.76C102.03 90.456 101.726 90.072 101.518 89.608C101.31 89.128 101.174 88.632 101.11 88.12C100.854 88.616 100.534 89.104 100.15 89.584C99.7658 90.048 99.3178 90.432 98.8058 90.736C98.3098 91.04 97.7498 91.192 97.1258 91.192ZM97.1258 89.968C97.6698 89.968 98.1418 89.808 98.5418 89.488C98.9578 89.152 99.3178 88.72 99.6218 88.192C99.9418 87.664 100.206 87.096 100.414 86.488C100.638 85.88 100.814 85.296 100.942 84.736C101.086 84.16 101.198 83.672 101.278 83.272C101.326 83 101.35 82.752 101.35 82.528C101.35 82.32 101.326 82.12 101.278 81.928C101.23 81.736 101.142 81.552 101.014 81.376C100.806 81.104 100.534 80.904 100.198 80.776C99.8778 80.648 99.5338 80.584 99.1658 80.584C98.8138 80.584 98.4538 80.64 98.0858 80.752C97.7338 80.864 97.4218 81.008 97.1498 81.184C96.3818 81.712 95.7578 82.424 95.2778 83.32C94.8138 84.216 94.5818 85.136 94.5818 86.08C94.5818 86.672 94.6538 87.272 94.7978 87.88C94.9418 88.472 95.1978 88.968 95.5658 89.368C95.9498 89.768 96.4698 89.968 97.1258 89.968ZM107.573 97.72C106.773 97.72 106.197 97.52 105.845 97.12C105.493 96.736 105.317 96.288 105.317 95.776C105.317 95.136 105.525 94.52 105.941 93.928C106.453 93.208 107.117 92.64 107.933 92.224C108.765 91.808 109.621 91.6 110.501 91.6C111.045 91.6 111.557 91.68 112.037 91.84C112.133 91.376 112.197 90.92 112.229 90.472C112.261 90.024 112.277 89.592 112.277 89.176C112.277 88.888 112.269 88.608 112.253 88.336C112.253 88.064 112.245 87.8 112.229 87.544C112.021 88.104 111.741 88.664 111.389 89.224C111.037 89.768 110.605 90.224 110.093 90.592C109.581 90.96 108.981 91.144 108.293 91.144C107.557 91.144 106.933 90.968 106.421 90.616C105.925 90.248 105.565 89.648 105.341 88.816C105.181 88.224 105.101 87.592 105.101 86.92C105.101 86.264 105.149 85.6 105.245 84.928C105.357 84.24 105.445 83.576 105.509 82.936C105.525 82.808 105.533 82.672 105.533 82.528C105.549 82.384 105.557 82.248 105.557 82.12C105.557 81.992 105.549 81.864 105.533 81.736C105.533 81.608 105.525 81.488 105.509 81.376C105.285 81.2 105.173 80.984 105.173 80.728C105.173 80.568 105.221 80.432 105.317 80.32C105.429 80.208 105.565 80.152 105.725 80.152C105.821 80.152 105.925 80.176 106.037 80.224C106.357 80.384 106.565 80.624 106.661 80.944C106.757 81.264 106.805 81.6 106.805 81.952C106.805 82.16 106.797 82.36 106.781 82.552C106.765 82.728 106.749 82.896 106.733 83.056C106.717 83.504 106.653 84.096 106.541 84.832C106.429 85.568 106.373 86.288 106.373 86.992C106.373 87.808 106.509 88.504 106.781 89.08C107.053 89.64 107.581 89.92 108.365 89.92C108.861 89.92 109.301 89.736 109.685 89.368C110.085 89 110.429 88.536 110.717 87.976C111.021 87.4 111.269 86.824 111.461 86.248C111.669 85.672 111.821 85.168 111.917 84.736C112.013 84.288 112.069 84.008 112.085 83.896C112.101 83.736 112.109 83.472 112.109 83.104C112.125 82.72 112.133 82.336 112.133 81.952C112.149 81.552 112.157 81.28 112.157 81.136C112.173 80.832 112.237 80.592 112.349 80.416C112.477 80.24 112.661 80.152 112.901 80.152C113.157 80.152 113.325 80.232 113.405 80.392C113.485 80.552 113.525 80.72 113.525 80.896C113.525 81.072 113.517 81.264 113.501 81.472C113.485 81.664 113.469 81.848 113.453 82.024C113.453 82.216 113.445 82.504 113.429 82.888C113.429 83.256 113.429 83.632 113.429 84.016C113.429 84.4 113.429 84.728 113.429 85C113.429 85.272 113.429 85.408 113.429 85.408C113.429 85.872 113.437 86.36 113.453 86.872C113.469 87.384 113.477 87.896 113.477 88.408C113.477 89.064 113.453 89.728 113.405 90.4C113.373 91.056 113.293 91.712 113.165 92.368C113.357 92.496 113.509 92.632 113.621 92.776C113.717 92.92 113.765 93.064 113.765 93.208C113.765 93.368 113.717 93.512 113.621 93.64C113.525 93.768 113.389 93.832 113.213 93.832C113.085 93.832 112.941 93.776 112.781 93.664C112.621 94.144 112.397 94.6 112.109 95.032C111.837 95.48 111.493 95.888 111.077 96.256C110.645 96.656 110.117 97 109.493 97.288C108.869 97.576 108.229 97.72 107.573 97.72ZM107.645 96.496C108.109 96.496 108.565 96.392 109.013 96.184C109.461 95.976 109.861 95.712 110.213 95.392C110.581 95.056 110.885 94.688 111.125 94.288C111.365 93.888 111.565 93.472 111.725 93.04C111.661 93.008 111.589 92.984 111.509 92.968C111.445 92.952 111.373 92.936 111.293 92.92C111.053 92.872 110.805 92.848 110.549 92.848C109.861 92.848 109.181 93 108.509 93.304C107.837 93.624 107.325 94.064 106.973 94.624C106.893 94.752 106.821 94.92 106.757 95.128C106.693 95.336 106.661 95.536 106.661 95.728C106.661 95.888 106.701 96.04 106.781 96.184C106.861 96.328 106.989 96.416 107.165 96.448C107.245 96.464 107.325 96.472 107.405 96.472C107.485 96.488 107.565 96.496 107.645 96.496ZM116.307 79.024C116.179 79.024 116.067 78.976 115.971 78.88C115.875 78.768 115.827 78.648 115.827 78.52C115.827 78.376 115.907 78.248 116.067 78.136L116.475 77.896C116.683 77.736 116.851 77.536 116.979 77.296C117.123 77.056 117.235 76.808 117.315 76.552C117.043 76.52 116.835 76.424 116.691 76.264C116.563 76.088 116.499 75.904 116.499 75.712C116.499 75.472 116.579 75.256 116.739 75.064C116.899 74.856 117.131 74.752 117.435 74.752C117.755 74.752 117.979 74.864 118.107 75.088C118.251 75.312 118.323 75.592 118.323 75.928C118.323 76.28 118.243 76.672 118.083 77.104C117.939 77.52 117.731 77.904 117.459 78.256C117.187 78.592 116.867 78.832 116.499 78.976C116.467 78.992 116.435 79.008 116.403 79.024C116.371 79.024 116.339 79.024 116.307 79.024ZM125.105 93.856C124.529 93.856 123.897 93.776 123.209 93.616C122.537 93.456 121.889 93.208 121.265 92.872C120.641 92.536 120.129 92.104 119.729 91.576C119.345 91.048 119.153 90.416 119.153 89.68C119.153 88.8 119.305 88.096 119.609 87.568C119.913 87.04 120.305 86.664 120.785 86.44C121.281 86.2 121.793 86.08 122.321 86.08C122.881 86.08 123.417 86.192 123.929 86.416C124.457 86.624 124.889 86.912 125.225 87.28C125.561 87.632 125.729 88.04 125.729 88.504C125.729 88.6 125.721 88.704 125.705 88.816C125.689 88.912 125.657 89.016 125.609 89.128C125.561 89.24 125.473 89.392 125.345 89.584C125.217 89.76 125.089 89.88 124.961 89.944C124.801 90.024 124.665 90.064 124.553 90.064C124.377 90.064 124.225 90.008 124.097 89.896C123.985 89.768 123.929 89.624 123.929 89.464C123.929 89.224 124.041 89.04 124.265 88.912C124.457 88.784 124.553 88.656 124.553 88.528C124.553 88.336 124.425 88.152 124.169 87.976C123.929 87.8 123.665 87.656 123.377 87.544C123.105 87.432 122.905 87.368 122.777 87.352C122.697 87.336 122.617 87.328 122.537 87.328C122.473 87.328 122.401 87.328 122.321 87.328C121.649 87.328 121.153 87.536 120.833 87.952C120.529 88.368 120.377 88.944 120.377 89.68C120.377 90.192 120.537 90.632 120.857 91C121.193 91.384 121.609 91.696 122.105 91.936C122.617 92.176 123.137 92.352 123.665 92.464C124.209 92.576 124.689 92.632 125.105 92.632C126.049 92.632 126.881 92.448 127.601 92.08C128.337 91.712 128.913 91.24 129.329 90.664C129.761 90.088 129.977 89.488 129.977 88.864C129.977 88.48 129.889 88.104 129.713 87.736C129.537 87.352 129.249 87 128.849 86.68C128.385 86.296 127.833 86.008 127.193 85.816C126.569 85.624 125.929 85.456 125.273 85.312C124.633 85.168 124.033 84.976 123.473 84.736C122.929 84.496 122.481 84.136 122.129 83.656C121.793 83.176 121.625 82.496 121.625 81.616C121.625 81.104 121.761 80.632 122.033 80.2C122.305 79.752 122.633 79.392 123.017 79.12C123.785 78.576 124.689 78.304 125.729 78.304C126.241 78.304 126.737 78.384 127.217 78.544C127.697 78.704 128.121 78.944 128.489 79.264C129.033 79.76 129.305 80.328 129.305 80.968C129.305 81.368 129.185 81.752 128.945 82.12C128.785 82.344 128.617 82.456 128.441 82.456C128.281 82.456 128.137 82.384 128.009 82.24C127.881 82.08 127.817 81.912 127.817 81.736C127.817 81.672 127.833 81.592 127.865 81.496C127.913 81.352 127.953 81.232 127.985 81.136C128.033 81.024 128.057 80.928 128.057 80.848C128.057 80.656 127.929 80.44 127.673 80.2C127.449 79.976 127.161 79.816 126.809 79.72C126.457 79.608 126.097 79.552 125.729 79.552C125.377 79.552 125.025 79.6 124.673 79.696C124.321 79.792 124.017 79.936 123.761 80.128C123.185 80.576 122.897 81.152 122.897 81.856C122.897 82.368 123.097 82.816 123.497 83.2C123.817 83.488 124.257 83.712 124.817 83.872C125.377 84.032 125.857 84.168 126.257 84.28C126.833 84.424 127.417 84.6 128.009 84.808C128.617 85.016 129.169 85.32 129.665 85.72C130.193 86.136 130.577 86.624 130.817 87.184C131.073 87.728 131.201 88.288 131.201 88.864C131.201 89.6 131.009 90.312 130.625 91C130.241 91.672 129.697 92.232 128.993 92.68C128.433 93.032 127.809 93.312 127.121 93.52C126.449 93.744 125.777 93.856 125.105 93.856Z" fill="url(#paint0_linear_25_7)"/>
<path d="M27.944 92.68C27 92.68 26.176 92.44 25.472 91.96C24.768 91.496 24.216 90.88 23.816 90.112C23.432 89.344 23.24 88.512 23.24 87.616C23.24 86.896 23.36 86.192 23.6 85.504C23.856 84.816 24.216 84.192 24.68 83.632C25.144 83.056 25.712 82.6 26.384 82.264C27.056 81.928 27.816 81.76 28.664 81.76C29.4 81.76 30.056 81.912 30.632 82.216C31.208 82.52 31.664 82.952 32 83.512C32.352 84.056 32.528 84.704 32.528 85.456C32.528 86 32.416 86.52 32.192 87.016C31.968 87.512 31.64 87.92 31.208 88.24C30.776 88.544 30.24 88.696 29.6 88.696C29.104 88.696 28.664 88.616 28.28 88.456C27.896 88.28 27.704 88.04 27.704 87.736C27.704 87.592 27.752 87.464 27.848 87.352C27.944 87.24 28.08 87.184 28.256 87.184C28.512 87.184 28.728 87.248 28.904 87.376C29.08 87.488 29.32 87.544 29.624 87.544C30.152 87.544 30.568 87.32 30.872 86.872C31.192 86.408 31.352 85.904 31.352 85.36C31.352 84.56 31.08 83.96 30.536 83.56C30.008 83.16 29.376 82.96 28.64 82.96C27.792 82.96 27.048 83.176 26.408 83.608C25.784 84.04 25.296 84.616 24.944 85.336C24.608 86.04 24.44 86.8 24.44 87.616C24.44 88.32 24.584 88.968 24.872 89.56C25.16 90.152 25.568 90.624 26.096 90.976C26.624 91.328 27.24 91.504 27.944 91.504C28.936 91.504 29.816 91.256 30.584 90.76C31.352 90.264 32.032 89.624 32.624 88.84C33.216 88.04 33.736 87.2 34.184 86.32C34.648 85.424 35.056 84.584 35.408 83.8C35.344 83.912 35.256 84 35.144 84.064C35.032 84.112 34.92 84.136 34.808 84.136C34.664 84.136 34.536 84.096 34.424 84.016C34.328 83.92 34.28 83.792 34.28 83.632C34.28 83.392 34.392 83.184 34.616 83.008C34.84 82.832 35.088 82.688 35.36 82.576C35.648 82.464 35.888 82.392 36.08 82.36C36.32 81.848 36.592 81.248 36.896 80.56C37.216 79.856 37.536 79.128 37.856 78.376C38.192 77.608 38.496 76.872 38.768 76.168C39.04 75.464 39.264 74.84 39.44 74.296C39.52 74.088 39.616 73.92 39.728 73.792C39.84 73.648 40 73.576 40.208 73.576C40.48 73.576 40.656 73.696 40.736 73.936C40.816 74.16 40.888 74.424 40.952 74.728C41.208 76.024 41.464 77.32 41.72 78.616C41.992 79.896 42.28 81.176 42.584 82.456C42.632 82.456 42.68 82.456 42.728 82.456C42.776 82.44 42.824 82.432 42.872 82.432C43.048 82.432 43.192 82.504 43.304 82.648C43.432 82.776 43.496 82.92 43.496 83.08C43.496 83.192 43.448 83.304 43.352 83.416C43.256 83.512 43.088 83.576 42.848 83.608C42.912 83.848 43.016 84.224 43.16 84.736C43.304 85.248 43.472 85.816 43.664 86.44C43.872 87.048 44.096 87.648 44.336 88.24C44.576 88.816 44.824 89.312 45.08 89.728C45.288 90.032 45.488 90.256 45.68 90.4C45.888 90.544 46.096 90.584 46.304 90.52C46.544 90.472 46.712 90.512 46.808 90.64C46.92 90.752 46.976 90.888 46.976 91.048C46.976 91.272 46.912 91.456 46.784 91.6C46.656 91.744 46.488 91.816 46.28 91.816C45.752 91.816 45.264 91.6 44.816 91.168C44.384 90.736 43.992 90.176 43.64 89.488C43.288 88.8 42.976 88.08 42.704 87.328C42.432 86.56 42.2 85.848 42.008 85.192C41.832 84.52 41.696 83.984 41.6 83.584C40.816 83.584 40.032 83.568 39.248 83.536C38.464 83.504 37.68 83.48 36.896 83.464C36.528 84.232 36.136 85.04 35.72 85.888C35.32 86.72 34.872 87.544 34.376 88.36C33.896 89.16 33.344 89.888 32.72 90.544C32.112 91.2 31.416 91.72 30.632 92.104C29.848 92.488 28.952 92.68 27.944 92.68ZM41.336 82.408C41.112 81.416 40.896 80.416 40.688 79.408C40.496 78.4 40.288 77.344 40.064 76.24C39.712 77.248 39.304 78.264 38.84 79.288C38.376 80.296 37.92 81.28 37.472 82.24C38.128 82.256 38.776 82.288 39.416 82.336C40.056 82.368 40.696 82.392 41.336 82.408ZM49.8337 91.192C49.5777 91.192 49.3137 91.12 49.0417 90.976C48.6257 90.752 48.3217 90.416 48.1297 89.968C47.9377 89.504 47.8177 89.024 47.7697 88.528C47.7217 88.016 47.6977 87.576 47.6977 87.208V82.432C47.6977 81.92 47.7057 81.32 47.7217 80.632C47.7537 79.928 47.8097 79.216 47.8897 78.496C47.9697 77.76 48.0897 77.072 48.2497 76.432C48.4257 75.792 48.6497 75.28 48.9217 74.896C49.2097 74.496 49.5777 74.296 50.0257 74.296C50.3777 74.296 50.6737 74.408 50.9137 74.632C51.1537 74.856 51.3457 75.128 51.4897 75.448C51.6497 75.752 51.7697 76.032 51.8497 76.288C51.9777 76.72 52.0737 77.192 52.1377 77.704C52.2017 78.2 52.2337 78.72 52.2337 79.264C52.2337 80.4 52.0817 81.544 51.7777 82.696C51.4897 83.848 51.0337 84.8 50.4097 85.552C50.2657 85.728 50.0497 85.952 49.7617 86.224C49.4737 86.48 49.1937 86.6 48.9217 86.584V87.208C48.9217 87.352 48.9297 87.576 48.9457 87.88C48.9617 88.184 48.9937 88.496 49.0417 88.816C49.1057 89.12 49.1937 89.384 49.3057 89.608C49.4337 89.832 49.6017 89.944 49.8097 89.944C50.0177 89.944 50.2177 89.832 50.4097 89.608C50.6177 89.384 50.7937 89.136 50.9377 88.864C51.0977 88.592 51.2097 88.384 51.2737 88.24C51.4017 88 51.6017 87.88 51.8737 87.88C52.0177 87.88 52.1537 87.928 52.2817 88.024C52.4097 88.12 52.4737 88.256 52.4737 88.432C52.4737 88.496 52.4577 88.576 52.4257 88.672C52.3297 88.992 52.1537 89.352 51.8977 89.752C51.6417 90.152 51.3377 90.496 50.9857 90.784C50.6337 91.056 50.2497 91.192 49.8337 91.192ZM48.9217 85.24C49.1297 85.096 49.3137 84.936 49.4737 84.76C49.7777 84.408 50.0417 83.92 50.2657 83.296C50.4897 82.672 50.6657 81.984 50.7937 81.232C50.9377 80.48 51.0097 79.744 51.0097 79.024C51.0097 78.368 50.9457 77.752 50.8177 77.176C50.7057 76.6 50.5137 76.128 50.2417 75.76C50.1297 75.6 50.0337 75.52 49.9537 75.52C49.8897 75.52 49.8337 75.568 49.7857 75.664C49.7057 75.808 49.6337 75.96 49.5697 76.12C49.5057 76.28 49.4497 76.448 49.4017 76.624C49.2897 77.024 49.2017 77.512 49.1377 78.088C49.0737 78.664 49.0257 79.272 48.9937 79.912C48.9617 80.552 48.9377 81.168 48.9217 81.76C48.9217 82.352 48.9217 82.856 48.9217 83.272V85.24ZM56.1853 91.192C55.9293 91.192 55.6653 91.12 55.3933 90.976C54.9773 90.752 54.6733 90.416 54.4813 89.968C54.2893 89.504 54.1693 89.024 54.1213 88.528C54.0733 88.016 54.0493 87.576 54.0493 87.208V82.432C54.0493 81.92 54.0573 81.32 54.0732 80.632C54.1053 79.928 54.1613 79.216 54.2413 78.496C54.3213 77.76 54.4413 77.072 54.6013 76.432C54.7773 75.792 55.0013 75.28 55.2733 74.896C55.5613 74.496 55.9293 74.296 56.3773 74.296C56.7293 74.296 57.0253 74.408 57.2653 74.632C57.5053 74.856 57.6973 75.128 57.8413 75.448C58.0013 75.752 58.1213 76.032 58.2013 76.288C58.3293 76.72 58.4253 77.192 58.4893 77.704C58.5533 78.2 58.5853 78.72 58.5853 79.264C58.5853 80.4 58.4333 81.544 58.1293 82.696C57.8413 83.848 57.3853 84.8 56.7613 85.552C56.6173 85.728 56.4013 85.952 56.1133 86.224C55.8253 86.48 55.5453 86.6 55.2733 86.584V87.208C55.2733 87.352 55.2813 87.576 55.2973 87.88C55.3133 88.184 55.3453 88.496 55.3933 88.816C55.4573 89.12 55.5453 89.384 55.6573 89.608C55.7853 89.832 55.9533 89.944 56.1613 89.944C56.3693 89.944 56.5693 89.832 56.7613 89.608C56.9693 89.384 57.1453 89.136 57.2893 88.864C57.4493 88.592 57.5613 88.384 57.6253 88.24C57.7533 88 57.9533 87.88 58.2253 87.88C58.3693 87.88 58.5053 87.928 58.6333 88.024C58.7613 88.12 58.8253 88.256 58.8253 88.432C58.8253 88.496 58.8093 88.576 58.7773 88.672C58.6813 88.992 58.5053 89.352 58.2493 89.752C57.9933 90.152 57.6893 90.496 57.3373 90.784C56.9853 91.056 56.6013 91.192 56.1853 91.192ZM55.2733 85.24C55.4813 85.096 55.6653 84.936 55.8253 84.76C56.1293 84.408 56.3933 83.92 56.6173 83.296C56.8413 82.672 57.0173 81.984 57.1453 81.232C57.2893 80.48 57.3613 79.744 57.3613 79.024C57.3613 78.368 57.2973 77.752 57.1693 77.176C57.0573 76.6 56.8653 76.128 56.5933 75.76C56.4813 75.6 56.3853 75.52 56.3053 75.52C56.2413 75.52 56.1853 75.568 56.1373 75.664C56.0573 75.808 55.9853 75.96 55.9213 76.12C55.8573 76.28 55.8013 76.448 55.7533 76.624C55.6413 77.024 55.5533 77.512 55.4893 78.088C55.4253 78.664 55.3773 79.272 55.3453 79.912C55.3133 80.552 55.2893 81.168 55.2733 81.76C55.2733 82.352 55.2733 82.856 55.2733 83.272V85.24Z" fill="url(#paint1_linear_25_7)"/>
<path d="M54.064 116.008C53.008 116.008 51.976 115.84 50.968 115.504C49.96 115.184 49.04 114.696 48.208 114.04C47.392 113.384 46.72 112.56 46.192 111.568C45.664 110.56 45.344 109.384 45.232 108.04C45.216 107.88 45.208 107.728 45.208 107.584C45.208 107.424 45.208 107.264 45.208 107.104C45.208 106.448 45.256 105.808 45.352 105.184C45.448 104.544 45.6 103.928 45.808 103.336C45.36 102.872 44.976 102.352 44.656 101.776C44.352 101.2 44.2 100.608 44.2 100C44.2 99.68 44.248 99.368 44.344 99.064C44.456 98.744 44.632 98.432 44.872 98.128C44.952 98.016 45.048 97.928 45.16 97.864C45.272 97.8 45.392 97.768 45.52 97.768C45.68 97.768 45.816 97.816 45.928 97.912C46.056 97.992 46.12 98.12 46.12 98.296C46.12 98.44 46.08 98.584 46 98.728C45.936 98.84 45.856 98.952 45.76 99.064C45.68 99.16 45.6 99.264 45.52 99.376L45.424 99.496C45.392 99.56 45.376 99.656 45.376 99.784C45.376 99.864 45.384 99.976 45.4 100.12C45.416 100.248 45.44 100.416 45.472 100.624C45.52 100.848 45.624 101.104 45.784 101.392C45.944 101.68 46.104 101.912 46.264 102.088L46.288 102.112C46.832 101.008 47.56 100.032 48.472 99.184C49.384 98.336 50.472 97.688 51.736 97.24C52.136 97.112 52.568 97.008 53.032 96.928C53.512 96.848 54 96.808 54.496 96.808C55.376 96.808 56.232 96.936 57.064 97.192C57.912 97.448 58.64 97.856 59.248 98.416C59.856 98.96 60.224 99.696 60.352 100.624C61.104 101.072 61.688 101.648 62.104 102.352C62.536 103.04 62.832 103.792 62.992 104.608C63.168 105.424 63.256 106.24 63.256 107.056C63.256 107.2 63.256 107.352 63.256 107.512C63.256 107.656 63.248 107.8 63.232 107.944C63.152 109.256 62.84 110.416 62.296 111.424C61.752 112.432 61.048 113.28 60.184 113.968C59.32 114.64 58.36 115.144 57.304 115.48C56.248 115.832 55.168 116.008 54.064 116.008ZM52.744 104.944C53.464 104.944 54.216 104.872 55 104.728C55.8 104.568 56.544 104.304 57.232 103.936C57.92 103.568 58.448 103.056 58.816 102.4C58.896 102.24 58.968 102.072 59.032 101.896C59.112 101.72 59.16 101.544 59.176 101.368C58.84 101.24 58.504 101.176 58.168 101.176C58.104 101.176 58.032 101.184 57.952 101.2C57.888 101.2 57.816 101.208 57.736 101.224C57.704 101.24 57.672 101.248 57.64 101.248C57.608 101.248 57.568 101.264 57.52 101.296L57.472 101.32C57.408 101.384 57.296 101.44 57.136 101.488C56.992 101.52 56.88 101.536 56.8 101.536C56.656 101.52 56.552 101.464 56.488 101.368C56.424 101.272 56.392 101.168 56.392 101.056C56.392 100.88 56.424 100.752 56.488 100.672L56.56 100.552L56.656 100.456C56.816 100.296 57.072 100.184 57.424 100.12C57.776 100.056 58.064 100.024 58.288 100.024C58.512 100.024 58.744 100.048 58.984 100.096C58.76 99.584 58.384 99.176 57.856 98.872C57.328 98.552 56.752 98.32 56.128 98.176C55.52 98.032 54.952 97.96 54.424 97.96C53.352 97.96 52.344 98.176 51.4 98.608C50.456 99.04 49.624 99.64 48.904 100.408C48.184 101.16 47.616 102.032 47.2 103.024C47.952 103.664 48.816 104.144 49.792 104.464C50.784 104.784 51.768 104.944 52.744 104.944ZM54.088 114.832C55.048 114.832 55.992 114.688 56.92 114.4C57.848 114.096 58.688 113.656 59.44 113.08C60.192 112.488 60.8 111.76 61.264 110.896C61.728 110.032 61.992 109.032 62.056 107.896C62.056 107.768 62.056 107.648 62.056 107.536C62.072 107.408 62.08 107.288 62.08 107.176C62.08 106.232 61.952 105.288 61.696 104.344C61.456 103.384 60.984 102.608 60.28 102.016C60.184 102.448 60.016 102.84 59.776 103.192C59.312 103.928 58.68 104.512 57.88 104.944C57.08 105.36 56.224 105.656 55.312 105.832C54.4 106.008 53.544 106.096 52.744 106.096C51.704 106.096 50.656 105.944 49.6 105.64C48.56 105.32 47.616 104.84 46.768 104.2C46.64 104.68 46.544 105.168 46.48 105.664C46.416 106.144 46.384 106.632 46.384 107.128C46.384 107.272 46.384 107.416 46.384 107.56C46.384 107.704 46.392 107.848 46.408 107.992C46.504 109.16 46.784 110.176 47.248 111.04C47.712 111.888 48.296 112.592 49 113.152C49.72 113.712 50.52 114.136 51.4 114.424C52.28 114.696 53.176 114.832 54.088 114.832ZM73.0379 115.456C72.6379 115.456 72.2459 115.376 71.8619 115.216C71.4939 115.056 71.1979 114.792 70.9739 114.424C70.7499 114.056 70.5979 113.632 70.5179 113.152C70.4379 112.656 70.3979 112.136 70.3979 111.592C70.3979 110.808 70.4379 110.032 70.5179 109.264C70.5979 108.496 70.6379 107.864 70.6379 107.368C70.6379 106.968 70.5979 106.592 70.5179 106.24C70.3899 105.728 70.1659 105.36 69.8459 105.136C69.5259 104.896 69.0619 104.776 68.4539 104.776C67.9579 104.776 67.5419 104.96 67.2059 105.328C66.8699 105.68 66.5899 106.072 66.3659 106.504C65.8219 107.544 65.4939 108.688 65.3819 109.936C65.2699 111.184 65.2139 112.4 65.2139 113.584V114.4C65.2139 114.528 65.1419 114.64 64.9979 114.736C64.8539 114.832 64.6939 114.88 64.5179 114.88C64.3739 114.88 64.2459 114.84 64.1339 114.76C64.0219 114.664 63.9659 114.504 63.9659 114.28C63.9659 114.216 63.9659 114.16 63.9659 114.112C63.9819 114.048 63.9899 113.992 63.9899 113.944C64.0059 113.672 64.0219 113.272 64.0379 112.744C64.0539 112.216 64.0699 111.616 64.0859 110.944C64.1179 110.256 64.1339 109.56 64.1339 108.856C64.1339 107.768 64.1019 106.76 64.0379 105.832C63.9739 104.904 63.8539 104.264 63.6779 103.912C63.5339 103.784 63.4619 103.624 63.4619 103.432C63.4619 103.272 63.5099 103.128 63.6059 103C63.7179 102.872 63.8539 102.808 64.0139 102.808C64.0619 102.808 64.1179 102.816 64.1819 102.832C64.2459 102.848 64.3099 102.88 64.3739 102.928C64.6459 103.12 64.8539 103.52 64.9979 104.128C65.1579 104.736 65.2699 105.384 65.3339 106.072C65.6539 105.416 66.0699 104.832 66.5819 104.32C67.0939 103.808 67.7179 103.552 68.4539 103.552C69.2539 103.552 69.9419 103.752 70.5179 104.152C71.1099 104.552 71.5019 105.152 71.6939 105.952C71.7419 106.16 71.7739 106.4 71.7899 106.672C71.8059 106.928 71.8139 107.216 71.8139 107.536C71.8139 108.176 71.7899 108.88 71.7419 109.648C71.7099 110.4 71.6939 111.104 71.6939 111.76C71.6939 112.224 71.7099 112.632 71.7419 112.984C71.7899 113.336 71.8699 113.592 71.9819 113.752C72.0939 113.896 72.2459 114.008 72.4379 114.088C72.6459 114.168 72.8539 114.208 73.0619 114.208C73.3339 114.208 73.5499 114.144 73.7099 114.016C73.7899 113.84 73.8939 113.712 74.0219 113.632C74.1499 113.552 74.2779 113.512 74.4059 113.512C74.5499 113.512 74.6699 113.56 74.7659 113.656C74.8779 113.736 74.9339 113.864 74.9339 114.04C74.9339 114.184 74.8699 114.384 74.7419 114.64C74.5819 114.96 74.3339 115.176 73.9979 115.288C73.6779 115.4 73.3579 115.456 73.0379 115.456ZM76.2696 115.192C76.0136 115.192 75.7496 115.12 75.4776 114.976C75.0616 114.752 74.7576 114.416 74.5656 113.968C74.3736 113.504 74.2536 113.024 74.2056 112.528C74.1576 112.016 74.1336 111.576 74.1336 111.208V106.432C74.1336 105.92 74.1416 105.32 74.1576 104.632C74.1896 103.928 74.2456 103.216 74.3256 102.496C74.4056 101.76 74.5256 101.072 74.6856 100.432C74.8616 99.792 75.0856 99.28 75.3576 98.896C75.6456 98.496 76.0136 98.296 76.4616 98.296C76.8136 98.296 77.1096 98.408 77.3496 98.632C77.5896 98.856 77.7816 99.128 77.9256 99.448C78.0856 99.752 78.2056 100.032 78.2856 100.288C78.4136 100.72 78.5096 101.192 78.5736 101.704C78.6376 102.2 78.6696 102.72 78.6696 103.264C78.6696 104.4 78.5176 105.544 78.2136 106.696C77.9256 107.848 77.4696 108.8 76.8456 109.552C76.7016 109.728 76.4856 109.952 76.1976 110.224C75.9096 110.48 75.6296 110.6 75.3576 110.584V111.208C75.3576 111.352 75.3656 111.576 75.3816 111.88C75.3976 112.184 75.4296 112.496 75.4776 112.816C75.5416 113.12 75.6296 113.384 75.7416 113.608C75.8696 113.832 76.0376 113.944 76.2456 113.944C76.4536 113.944 76.6536 113.832 76.8456 113.608C77.0536 113.384 77.2296 113.136 77.3736 112.864C77.5336 112.592 77.6456 112.384 77.7096 112.24C77.8376 112 78.0376 111.88 78.3096 111.88C78.4536 111.88 78.5896 111.928 78.7176 112.024C78.8456 112.12 78.9096 112.256 78.9096 112.432C78.9096 112.496 78.8936 112.576 78.8616 112.672C78.7656 112.992 78.5896 113.352 78.3336 113.752C78.0776 114.152 77.7736 114.496 77.4216 114.784C77.0696 115.056 76.6856 115.192 76.2696 115.192ZM75.3576 109.24C75.5656 109.096 75.7496 108.936 75.9096 108.76C76.2136 108.408 76.4776 107.92 76.7016 107.296C76.9256 106.672 77.1016 105.984 77.2296 105.232C77.3736 104.48 77.4456 103.744 77.4456 103.024C77.4456 102.368 77.3816 101.752 77.2536 101.176C77.1416 100.6 76.9496 100.128 76.6776 99.76C76.5656 99.6 76.4696 99.52 76.3896 99.52C76.3256 99.52 76.2696 99.568 76.2216 99.664C76.1416 99.808 76.0696 99.96 76.0056 100.12C75.9416 100.28 75.8856 100.448 75.8376 100.624C75.7256 101.024 75.6376 101.512 75.5736 102.088C75.5096 102.664 75.4616 103.272 75.4296 103.912C75.3976 104.552 75.3736 105.168 75.3576 105.76C75.3576 106.352 75.3576 106.856 75.3576 107.272V109.24ZM80.2452 102.28C79.9412 102.28 79.6852 102.168 79.4772 101.944C79.2692 101.72 79.1652 101.456 79.1652 101.152C79.1652 100.848 79.2692 100.584 79.4772 100.36C79.6852 100.136 79.9412 100.024 80.2452 100.024C80.5332 100.024 80.7812 100.136 80.9892 100.36C81.1972 100.584 81.3012 100.848 81.3012 101.152C81.3012 101.456 81.1972 101.72 80.9892 101.944C80.7812 102.168 80.5332 102.28 80.2452 102.28ZM81.3972 115.432C80.9652 115.432 80.5572 115.248 80.1732 114.88C79.8212 114.528 79.5812 114.072 79.4532 113.512C79.3252 112.952 79.2612 112.344 79.2612 111.688C79.2612 111.048 79.3012 110.392 79.3812 109.72C79.4612 109.048 79.5332 108.424 79.5972 107.848C79.6772 107.256 79.7172 106.768 79.7172 106.384C79.7172 105.904 79.6452 105.592 79.5012 105.448C79.0852 105.256 78.8772 105 78.8772 104.68C78.8772 104.52 78.9332 104.392 79.0452 104.296C79.1732 104.2 79.3172 104.152 79.4772 104.152C79.7012 104.152 79.9012 104.216 80.0772 104.344C80.2532 104.472 80.3972 104.616 80.5092 104.776C80.6852 105 80.7972 105.272 80.8452 105.592C80.9092 105.912 80.9412 106.256 80.9412 106.624C80.9412 107.072 80.9172 107.56 80.8692 108.088C80.8212 108.6 80.7652 109.112 80.7012 109.624C80.6532 110.072 80.6052 110.504 80.5572 110.92C80.5252 111.32 80.5092 111.704 80.5092 112.072C80.5092 112.504 80.5492 112.888 80.6292 113.224C80.7092 113.56 80.8452 113.816 81.0372 113.992C81.1492 114.104 81.2852 114.16 81.4452 114.16C81.7332 114.16 82.0052 114.008 82.2612 113.704C82.5332 113.4 82.7252 113.144 82.8372 112.936C82.9012 112.824 82.9572 112.712 83.0052 112.6C83.0532 112.472 83.1092 112.352 83.1732 112.24C83.2852 111.984 83.4692 111.856 83.7252 111.856C83.8852 111.856 84.0292 111.912 84.1572 112.024C84.3012 112.136 84.3732 112.28 84.3732 112.456C84.3732 112.504 84.3572 112.576 84.3252 112.672C84.2132 113.024 84.0052 113.416 83.7012 113.848C83.4132 114.28 83.0692 114.656 82.6692 114.976C82.2692 115.28 81.8452 115.432 81.3972 115.432ZM92.8051 115.456C92.4051 115.456 92.0131 115.376 91.6291 115.216C91.2611 115.056 90.9651 114.792 90.7411 114.424C90.5171 114.056 90.3651 113.632 90.2851 113.152C90.2051 112.656 90.1651 112.136 90.1651 111.592C90.1651 110.808 90.2051 110.032 90.2851 109.264C90.3651 108.496 90.4051 107.864 90.4051 107.368C90.4051 106.968 90.3651 106.592 90.2851 106.24C90.1571 105.728 89.9331 105.36 89.6131 105.136C89.2931 104.896 88.8291 104.776 88.2211 104.776C87.7251 104.776 87.3091 104.96 86.9731 105.328C86.6371 105.68 86.3571 106.072 86.1331 106.504C85.5891 107.544 85.2611 108.688 85.1491 109.936C85.0371 111.184 84.9811 112.4 84.9811 113.584V114.4C84.9811 114.528 84.9091 114.64 84.7651 114.736C84.6211 114.832 84.4611 114.88 84.2851 114.88C84.1411 114.88 84.0131 114.84 83.9011 114.76C83.7891 114.664 83.7331 114.504 83.7331 114.28C83.7331 114.216 83.7331 114.16 83.7331 114.112C83.7491 114.048 83.7571 113.992 83.7571 113.944C83.7731 113.672 83.7891 113.272 83.8051 112.744C83.8211 112.216 83.8371 111.616 83.8531 110.944C83.8851 110.256 83.9011 109.56 83.9011 108.856C83.9011 107.768 83.8691 106.76 83.8051 105.832C83.7411 104.904 83.6211 104.264 83.4451 103.912C83.3011 103.784 83.2291 103.624 83.2291 103.432C83.2291 103.272 83.2771 103.128 83.3731 103C83.4851 102.872 83.6211 102.808 83.7811 102.808C83.8291 102.808 83.8851 102.816 83.9491 102.832C84.0131 102.848 84.0771 102.88 84.1411 102.928C84.4131 103.12 84.6211 103.52 84.7651 104.128C84.9251 104.736 85.0371 105.384 85.1011 106.072C85.4211 105.416 85.8371 104.832 86.3491 104.32C86.8611 103.808 87.4851 103.552 88.2211 103.552C89.0211 103.552 89.7091 103.752 90.2851 104.152C90.8771 104.552 91.2691 105.152 91.4611 105.952C91.5091 106.16 91.5411 106.4 91.5571 106.672C91.5731 106.928 91.5811 107.216 91.5811 107.536C91.5811 108.176 91.5571 108.88 91.5091 109.648C91.4771 110.4 91.4611 111.104 91.4611 111.76C91.4611 112.224 91.4771 112.632 91.5091 112.984C91.5571 113.336 91.6371 113.592 91.7491 113.752C91.8611 113.896 92.0131 114.008 92.2051 114.088C92.4131 114.168 92.6211 114.208 92.8291 114.208C93.1011 114.208 93.3171 114.144 93.4771 114.016C93.5571 113.84 93.6611 113.712 93.7891 113.632C93.9171 113.552 94.0451 113.512 94.1731 113.512C94.3171 113.512 94.4371 113.56 94.5331 113.656C94.6451 113.736 94.7011 113.864 94.7011 114.04C94.7011 114.184 94.6371 114.384 94.5091 114.64C94.3491 114.96 94.1011 115.176 93.7651 115.288C93.4451 115.4 93.1251 115.456 92.8051 115.456ZM98.1773 115.216C97.1533 115.216 96.2813 114.944 95.5613 114.4C94.8573 113.84 94.3213 113.128 93.9533 112.264C93.6013 111.384 93.4253 110.472 93.4253 109.528C93.4253 108.648 93.5773 107.8 93.8813 106.984C94.2013 106.152 94.6813 105.456 95.3213 104.896C95.9293 104.416 96.5373 104.064 97.1453 103.84C97.7533 103.616 98.3533 103.504 98.9453 103.504C99.9853 103.504 100.729 103.752 101.177 104.248C101.641 104.728 101.873 105.296 101.873 105.952C101.873 106.496 101.721 107.048 101.417 107.608C101.129 108.152 100.729 108.608 100.217 108.976C99.6893 109.344 99.0893 109.64 98.4173 109.864C97.7613 110.072 97.0973 110.176 96.4253 110.176C95.8333 110.176 95.2573 110.08 94.6973 109.888C94.7293 110.608 94.8813 111.28 95.1533 111.904C95.4253 112.528 95.8093 113.032 96.3053 113.416C96.8173 113.8 97.4413 113.992 98.1773 113.992C98.5453 113.992 98.9613 113.936 99.4253 113.824C99.9053 113.712 100.337 113.536 100.721 113.296C101.105 113.04 101.337 112.728 101.417 112.36C101.449 112.248 101.465 112.112 101.465 111.952C101.465 111.792 101.465 111.656 101.465 111.544C101.465 111.336 101.529 111.184 101.657 111.088C101.785 110.992 101.929 110.944 102.089 110.944C102.233 110.944 102.369 110.992 102.497 111.088C102.625 111.184 102.689 111.336 102.689 111.544C102.689 111.768 102.689 111.976 102.689 112.168C102.689 112.344 102.649 112.544 102.569 112.768C102.377 113.36 102.033 113.84 101.537 114.208C101.041 114.56 100.489 114.816 99.8813 114.976C99.2893 115.136 98.7213 115.216 98.1773 115.216ZM96.4493 108.928C96.7373 108.928 97.0013 108.904 97.2413 108.856C97.7693 108.76 98.2893 108.592 98.8013 108.352C99.3293 108.112 99.7693 107.792 100.121 107.392C100.473 106.976 100.649 106.488 100.649 105.928C100.649 105.576 100.521 105.304 100.265 105.112C100.009 104.92 99.7053 104.8 99.3533 104.752C99.2573 104.736 99.1613 104.728 99.0653 104.728C98.9693 104.712 98.8733 104.704 98.7773 104.704C98.0733 104.704 97.4413 104.896 96.8813 105.28C96.3213 105.648 95.8573 106.128 95.4893 106.72C95.1373 107.312 94.9053 107.944 94.7933 108.616C95.0333 108.728 95.2973 108.808 95.5853 108.856C95.8733 108.904 96.1613 108.928 96.4493 108.928Z" fill="url(#paint2_linear_25_7)"/>
<path d="M57.9396 6.8868C40.3695 9.85669 30.0317 21.0464 35.152 32.3809C35.5831 23.778 47.352 16.4436 62.0001 16.264L57.9396 6.8868ZM102.582 7.97291L60.4551 53.1296C38.3691 48.4284 25.5734 34.0037 30.7004 20.5024C14.983 36.9359 22.9958 57.0652 47.6814 66.8212L47.662 66.8419L48.5728 67.1675C48.9069 67.294 49.242 67.42 49.5818 67.5429L49.5923 67.5314L51.4091 68.1808L93.4381 23.1297C116.248 27.5606 129.594 42.2566 124.376 55.9972C140.49 39.1481 131.664 18.4117 105.494 8.957L105.454 8.99955L102.582 7.97291ZM119.403 44.7516C118.972 53.3543 107.203 60.6888 92.5548 60.8682L96.6149 70.2453C114.186 67.2761 124.523 56.0859 119.403 44.7516Z" fill="url(#paint3_linear_25_7)"/>
<defs>
<linearGradient id="paint0_linear_25_7" x1="63" y1="84.5" x2="143" y2="84.5" gradientUnits="userSpaceOnUse">
<stop stop-color="#84FAB0"/>
<stop offset="1" stop-color="#8FD3F4"/>
</linearGradient>
<linearGradient id="paint1_linear_25_7" x1="23" y1="84" x2="70" y2="84" gradientUnits="userSpaceOnUse">
<stop stop-color="#84FAB0"/>
<stop offset="1" stop-color="#8FD3F4"/>
</linearGradient>
<linearGradient id="paint2_linear_25_7" x1="43" y1="108.5" x2="104" y2="108.5" gradientUnits="userSpaceOnUse">
<stop stop-color="#92FE9D"/>
<stop offset="1" stop-color="#00C9FF"/>
</linearGradient>
<linearGradient id="paint3_linear_25_7" x1="22.6154" y1="38.566" x2="132.462" y2="38.566" gradientUnits="userSpaceOnUse">
<stop stop-color="#37ECBA"/>
<stop offset="1" stop-color="#72AFD3"/>
</linearGradient>
</defs>
</svg>
